<?xml version="1.0" encoding="utf-8"?>
<!-- Generator: Adobe Illustrator 23.0.0, SVG Export Plug-In . SVG Version: 6.00 Build 0)  -->
<svg version="1.1" id="Capa_1" xmlns="http://www.w3.org/2000/svg" xmlns:xlink="http://www.w3.org/1999/xlink" x="0px" y="0px"
	 viewBox="0 0 76.9 14.5" style="enable-background:new 0 0 76.9 14.5;" xml:space="preserve">
<style type="text/css">
	.st0{fill:#A8D42E;}
	.st1{fill:#177466;}
	.st2{fill:#242222;}
</style>
<title>Micovinoc</title>
<g>
	<g>
		<path class="st0" d="M10.9,2.6c-4.2,0-5.8,2.6-5.8,2.6S5,5.5,5.3,5.6s0.5-0.1,0.5-0.1c1.6-1.8,3.8-2.1,5.1-1.9
			c3.6,0.3,4.8,2.3,4.8,3.9s-1.5,3.5-5.1,3.7c0,0-2.9,0.2-4.7-1.9C5.8,9.1,5.6,8.9,5.3,9C5,9.2,5.1,9.5,5.1,9.5s1.3,2.3,5.5,2.6
			c2.1,0.2,6.9-0.7,7.2-4.6C18,5.8,16.3,2.5,10.9,2.6z"/>
	</g>
	<g>
		<path class="st1" d="M10.4,0.5c6.1,0,8.4,3.7,8.4,3.7S19,4.8,18.5,5s-0.7-0.1-0.7-0.2c-2.3-2.6-5.4-3-7.3-2.8
			c-5.2,0.4-6.9,3.3-7,5.5c0,2.3,2.1,5,7.4,5.3c0,0,4.1,0.3,6.7-2.8c0.1-0.2,0.4-0.4,0.8-0.2s0.3,0.7,0.3,0.7s-1.9,3.3-7.9,3.7
			c-3.1,0.2-9.9-1-10.4-6.7C0.3,5.1,2.7,0.4,10.4,0.5z"/>
	</g>
	<g>
		<path class="st1" d="M12.7,7.3c0,1.1-0.9,2-2,2s-2-0.9-2-2s0.9-2,2-2S12.7,6.2,12.7,7.3z"/>
	</g>
	<g>
		<g>
			<path class="st2" d="M26,4.3c2.2,0,3.4,1.1,3.2,1.7c-0.1,0.4-0.5,0.8-1.1,0.8c-1.1,0-0.6-1.1-2.4-1.1c-1.2,0-1.9,0.6-2.3,2
				c-0.1,0.6,0,2.1,1.7,2.1c1.5,0,1.7-1.2,2.7-1.2c0.7,0,1.1,0.4,1,0.8c-0.3,0.9-1.7,2-4.5,1.8s-3.8-2-3.1-4
				C21.7,5.4,23.2,4.3,26,4.3z"/>
		</g>
		<g>
			<path class="st2" d="M71.5,4.3c2.2,0,3.4,1.1,3.2,1.7c-0.1,0.4-0.5,0.8-1.1,0.8c-1.1,0-0.6-1.1-2.4-1.1c-1.2,0-1.9,0.6-2.3,2
				c-0.1,0.6,0,2.1,1.7,2.1c1.5,0,1.7-1.2,2.7-1.2c0.7,0,1.1,0.4,1,0.8c-0.3,0.9-1.7,2-4.5,1.8s-3.8-2-3.1-4
				C67.2,5.4,68.7,4.3,71.5,4.3z"/>
		</g>
		<g>
			<path class="st2" d="M34.1,4.3c2.9,0,4.3,1.8,3.7,4c-0.6,2.1-2.3,2.9-5,2.9c-2.8,0-4.1-1.8-3.6-3.8C29.5,5.9,30.9,4.3,34.1,4.3z
				 M33.1,9.9c1.4,0,2.1-0.7,2.4-2c0.2-1.2-0.4-2.2-1.6-2.2c-1.5-0.1-2.3,0.9-2.5,2.1C31.3,8.8,31.7,9.9,33.1,9.9z"/>
		</g>
		<g>
			<path class="st2" d="M62.5,4.3c2.9,0,4.3,1.8,3.7,4c-0.6,2.1-2.3,2.9-5,2.9c-2.8,0-4.1-1.8-3.6-3.8C57.9,5.9,59.3,4.3,62.5,4.3z
				 M61.5,9.9c1.4,0,2.1-0.7,2.4-2c0.2-1.2-0.4-2.2-1.6-2.2c-1.5-0.1-2.3,0.9-2.5,2.1C59.8,8.8,60.2,9.9,61.5,9.9z"/>
		</g>
		<g>
			<path class="st2" d="M42.8,10.7c-0.3,0.5-1.1,0.5-1.6,0.5c-0.6,0-1.3-0.1-1.4-0.6l-1.7-5c0-0.2-0.1-0.3-0.1-0.5
				c0.1-0.6,0.8-0.9,1.3-0.9s1,0.2,1.1,0.7l1.1,4.2l0,0L43.6,5c0.4-0.6,1-0.7,1.4-0.7c0.5,0,1.1,0.4,0.9,1c0,0.1-0.1,0.3-0.2,0.5
				L42.8,10.7z"/>
		</g>
		<g>
			<path class="st2" d="M46.3,5.2c0.1-0.5,0.5-0.9,1.1-0.9s1.3-0.1,1.3,0.9L48,10.4c-0.2,0.7-0.8,0.9-1.3,0.9
				c-0.6,0-1.2-0.3-1.1-0.8L46.3,5.2z"/>
		</g>
		<g>
			<g>
				<path class="st2" d="M49.3,5.2c0.1-0.6,0.6-0.9,1.3-0.9c0.6,0,0.9,0.4,0.9,0.9l-0.1,0.3h0.1c0.7-0.8,2.2-1.3,3.6-1.1
					c1.5,0.2,2.5,0.8,2,2.9l-0.3,2.9c-0.1,0.9-0.7,1.1-1.5,1.1s-1-0.5-0.9-1.1l0.4-3.1c0.2-0.8-0.4-1.3-1.3-1.3
					c-0.7,0-1.8,0.3-2,1.3l-0.4,3.1c-0.1,0.7-0.6,1-1.4,1c-1,0-1.1-0.6-1-1.1L49.3,5.2z"/>
			</g>
		</g>
	</g>
</g>
</svg>
