<?xml version="1.0" encoding="utf-8"?>
<!-- Generator: Adobe Illustrator 24.0.3, SVG Export Plug-In . SVG Version: 6.00 Build 0)  -->
<svg version="1.1" id="Capa_1" xmlns="http://www.w3.org/2000/svg" xmlns:xlink="http://www.w3.org/1999/xlink" x="0px" y="0px"
	 viewBox="0 0 505.5 112.8" style="enable-background:new 0 0 505.5 112.8;" xml:space="preserve">
<style type="text/css">
	.st0{fill:#0EA98C;}
	.st1{fill:#AECB3B;}
</style>
<g>
	<g>
		<path class="st0" d="M153.9,15.3c15.7,0,23.5,7.8,22.3,12.2c-0.8,2.9-3.7,5.6-7.8,5.6c-7.9,0-3.9-7.8-16.5-7.8
			c-8.6,0-13.2,4.2-16,14c-0.8,4.5,0.1,14.4,11.9,14.4c10.8,0,12.1-8.4,18.7-8.4c5.2,0,7.7,2.7,7,5.3c-1.9,6.5-11.8,14.3-31.4,12.9
			c-19.7-1.4-26.6-13.9-21.8-27.7C124,23.2,134.5,15.3,153.9,15.3z"/>
	</g>
	<g>
		<path class="st0" d="M477.9,15.3c15.7,0,23.5,7.8,22.3,12.2c-0.8,2.9-3.7,5.6-7.8,5.6c-7.9,0-3.9-7.8-16.5-7.8
			c-8.6,0-13.2,4.2-16,14c-0.8,4.5,0.1,14.4,11.9,14.4c10.8,0,12.1-8.4,18.7-8.4c5.2,0,7.7,2.7,7,5.3c-1.9,6.5-11.8,14.3-31.4,12.9
			c-19.7-1.4-26.6-13.9-21.8-27.7C447.9,23.2,458.5,15.3,477.9,15.3z"/>
	</g>
	<g>
		<path class="st0" d="M212.5,15.4c20.7,0.3,30.1,12.4,25.8,28.2c-4,14.6-16.2,20.2-35.2,20.2c-19.9,0-28.6-12.6-25.3-26.5
			C180.5,26.4,190.5,15,212.5,15.4z M205.8,54.2c10-0.1,14.9-4.9,16.6-13.8c1.6-8.4-2.9-15.2-11.1-15.5
			c-10.3-0.4-16.4,6.3-17.2,14.4C193.3,46.6,196.1,54.3,205.8,54.2z"/>
	</g>
	<g>
		<path class="st0" d="M415.2,15.4c20.7,0.3,30.1,12.4,25.8,28.2c-4,14.6-16.2,20.2-35.2,20.2c-19.9,0-28.6-12.6-25.3-26.5
			C383.1,26.4,393.1,15,415.2,15.4z M408.4,54.2c10-0.1,14.9-4.9,16.6-13.8c1.6-8.4-2.9-15.2-11.1-15.5
			c-10.3-0.4-16.4,6.3-17.2,14.4C395.9,46.6,398.8,54.3,408.4,54.2z"/>
	</g>
	<g>
		<path class="st0" d="M273.5,60.3c-2.1,3.6-7.4,3.5-11.3,3.5s-9.1-0.7-9.6-4.4l-11.9-34.7c-0.2-1.5-0.6-2.1-0.4-3.2
			c0.9-4.2,5.6-6.2,8.8-6.2c3.4,0,7,1.1,7.8,5l7.6,29.4l0.2-0.1l15-29c2.1-4.8,6.6-5.4,9.5-5.4c3.2,0,7.4,2.7,6.5,6.9
			c-0.2,1-0.7,2.2-1.6,3.7L273.5,60.3z"/>
	</g>
	<g>
		<path class="st0" d="M301.3,21.7c0.8-3.8,3.8-6.3,7.7-6.3c3.9,0,9.2-0.7,9.2,6.6l-4.6,35.7c-1.4,5.2-5.5,6.1-9.4,6.1
			c-3.9,0-8.2-2.1-7.4-5.9L301.3,21.7z"/>
	</g>
	<g>
		<path class="st1" d="M98.3,21.7c0.8-3.8,3.8-6.3,7.7-6.3c3.9,0,9.2-0.7,9.2,6.6l-4.6,35.7c-1.4,5.2-5.5,6.1-9.4,6.1
			c-3.9,0-8.2-2.1-7.4-5.9L98.3,21.7z"/>
	</g>
	<g>
		<g>
			<path class="st0" d="M323.6,21.4c0.9-4.3,4.4-6,8.9-6c4.5,0,6.6,2.7,6.2,6.3l-0.4,1.9l0.6,0c5.1-5.3,15.2-9.3,25.2-7.9
				c10.2,1.5,17.2,5.6,14.1,20.1l-2.4,20.3c-1,6.6-4.7,7.7-10.3,7.7c-5.6,0-7.2-3.6-6.4-7.5l2.6-21.5c1.2-5.8-2.9-8.8-9.1-8.8
				c-5,0-12.5,2.2-14,9.3L335.8,57c-0.8,4.9-3.9,6.7-9.5,6.7c-6.9,0-7.8-4.2-7-8L323.6,21.4z"/>
		</g>
	</g>
	<g>
		<path class="st1" d="M71.2,37.3c0.9-5.8-0.7-7.8-4.8-7.8c-3.1,0-6.6,3.2-7.5,8.3l-2.7,16.9c-1,6.2-5.3,9-10.6,9
			c-5.3,0-8.7-2.8-7.7-9l2.8-17.4c0.9-5.8-0.7-7.8-4.8-7.8c-3.1,0-6.6,3.2-7.5,8.3l-2.7,16.9c-1,6.2-5.3,9-10.6,9
			c-5.3,0-8.7-2.8-7.7-9l5-30.9c0.9-5.7,4.1-8.7,10.2-8.7c5.4,0,7,3.1,6.8,8.6h0.2c3.9-5.5,9.4-8.6,16.4-8.6
			c5.9,0,11.7,2.7,12.3,8.9c4.9-6.5,10.4-8.9,16.9-8.9c12.6,0,16.5,7.8,14.8,17.9l-3.5,21.7c-1,6.2-5.3,9-10.6,9
			c-5.3,0-8.7-2.8-7.7-9L71.2,37.3z"/>
	</g>
	<path class="st1" d="M499.5,65.5c0-2.6-2.1-4.7-4.7-4.7c-1.7,0-3.1,1.4-3.9,2.2c-24.5,24.1-42.6,26.9-55.2,27.9
		c-31,2.5-42.5-15.6-46.2-20.6c-1.6-2.1-3.6-4.1-6.4-4.1c-3.9,0-7,3.2-7,7c0,1.5,0.4,3,1,4.2c13.9,25.8,44.4,25.6,60.6,24
		c34.3-3.4,47.6-20,59.9-31.7C498.6,68.7,499.5,67.1,499.5,65.5z"/>
</g>
</svg>
