<?xml version="1.0" encoding="utf-8"?>
<!-- Generator: Adobe Illustrator 24.0.3, SVG Export Plug-In . SVG Version: 6.00 Build 0)  -->
<svg version="1.1" id="Capa_1" xmlns="http://www.w3.org/2000/svg" xmlns:xlink="http://www.w3.org/1999/xlink" x="0px" y="0px"
	 viewBox="0 0 152 123" style="enable-background:new 0 0 152 123;" xml:space="preserve">
<style type="text/css">
	.st0{fill:#0CA98E;}
</style>
<path class="st0" d="M130.1,88.5c6.2-5.8,9.9-13.2,9.9-21.1c0-17.2-17.2-31.5-39.7-34C93.2,21,76.6,12.3,57.2,12.3
	c-25.9,0-46.8,15.4-46.8,34.5c0,8,3.7,15.3,9.9,21.1c-3.4,6.6-8.4,11.7-8.5,11.8c-1.4,1.4-1.8,3.6-1,5.4c0.8,1.8,2.7,3,4.8,3
	c12,0,21.8-4.3,28.2-8.4c2.1,0.5,4.2,0.8,6.4,1.1c7.1,12.4,23.7,21.1,43.1,21.1c4.7,0,9.2-0.5,13.5-1.5c6.4,4,16.1,8.4,28.2,8.4
	c2.1,0,3.9-1.2,4.8-3c0.8-1.8,0.4-3.9-1-5.4C138.5,100.3,133.5,95.1,130.1,88.5z M41.7,68.7l-3.8,2.4c-3.2,2-6.4,3.5-9.7,4.6
	c0.6-1,1.2-2.1,1.8-3.2l3.5-6.7l-5.6-5.3c-3-2.9-6.7-7.6-6.7-13.8c0-13.1,16.5-24.1,36-24.1s36,11,36,24.1s-16.5,24.1-36,24.1
	c-3.7,0-7.4-0.4-11-1.2L41.7,68.7L41.7,68.7z M122.5,81.2l-5.6,5.3l3.5,6.7c0.6,1.1,1.2,2.2,1.8,3.2c-3.3-1.1-6.5-2.6-9.7-4.6
	l-3.8-2.4l-4.5,1c-3.6,0.8-7.3,1.2-11,1.2c-12.2,0-23-4.3-29.6-10.7C86.4,78.5,104,64.1,104,46.7c0-0.7-0.1-1.4-0.2-2.2
	c14.5,3.1,25.4,12.2,25.4,22.8C129.2,73.6,125.5,78.3,122.5,81.2z"/>
</svg>
