<?xml version="1.0" encoding="utf-8"?>
<!-- Generator: Adobe Illustrator 24.0.3, SVG Export Plug-In . SVG Version: 6.00 Build 0)  -->
<svg version="1.1" id="Capa_1" xmlns="http://www.w3.org/2000/svg" xmlns:xlink="http://www.w3.org/1999/xlink" x="0px" y="0px"
	 viewBox="0 0 152 123" style="enable-background:new 0 0 152 123;" xml:space="preserve">
<style type="text/css">
	.st0{fill:#0CA98E;}
</style>
<path class="st0" d="M133.9,103.3l-22.6-22.6c-1-1-2.4-1.6-3.9-1.6h-3.7c6.3-8,10-18.1,10-29c0-26-21.1-47.1-47.1-47.1
	S19.5,24.1,19.5,50.1s21.1,47.1,47.1,47.1c10.9,0,21-3.7,29-10V91c0,1.4,0.6,2.8,1.6,3.9l22.6,22.6c2.1,2.1,5.6,2.1,7.7,0l6.4-6.4
	C136,108.9,136,105.4,133.9,103.3L133.9,103.3z M66.6,82.7c-18,0-32.6-14.6-32.6-32.6c0-18,14.6-32.6,32.6-32.6
	c18,0,32.6,14.6,32.6,32.6C99.3,68.1,84.7,82.7,66.6,82.7z M72.8,48.2l-10.2-3.1c-1.2-0.4-2-1.5-2-2.9c0-1.6,1.2-3,2.7-3h6.4
	c1,0,2,0.3,2.9,0.8c0.7,0.5,1.7,0.4,2.3-0.2l2.7-2.5c0.8-0.8,0.8-2.1-0.1-2.8c-2.1-1.5-4.5-2.4-7.1-2.6v-3.7c0-1-0.8-1.8-1.8-1.8
	h-3.6c-1,0-1.8,0.8-1.8,1.8V32c-5.4,0.1-9.7,4.7-9.7,10.2c0,4.5,2.9,8.6,7.2,9.8l10.2,3.1c1.2,0.4,2,1.5,2,2.9c0,1.6-1.2,3-2.7,3
	h-6.4c-1,0-2-0.3-2.9-0.8c-0.7-0.5-1.7-0.4-2.3,0.2l-2.7,2.5c-0.8,0.8-0.8,2.1,0.1,2.8c2.1,1.5,4.5,2.4,7.1,2.6v3.7
	c0,1,0.8,1.8,1.8,1.8h3.6c1,0,1.8-0.8,1.8-1.8v-3.7c5.4-0.1,9.7-4.7,9.7-10.2C79.9,53.5,77,49.4,72.8,48.2L72.8,48.2z"/>
</svg>
