<?xml version="1.0" encoding="utf-8"?>
<!-- Generator: Adobe Illustrator 24.0.3, SVG Export Plug-In . SVG Version: 6.00 Build 0)  -->
<svg version="1.1" id="Capa_1" xmlns="http://www.w3.org/2000/svg" xmlns:xlink="http://www.w3.org/1999/xlink" x="0px" y="0px"
	 viewBox="0 0 876.2 112.8" style="enable-background:new 0 0 876.2 112.8;" xml:space="preserve">
<style type="text/css">
	.st0{fill:#B2B3B1;}
</style>
<g>
	<g>
		<path class="st0" d="M400.9,23.7c-30.5,0.1-41.8,18.4-41.8,18.4s-0.9,2.9,1.4,3.8c2.3,0.9,3.5-0.7,3.6-0.9
			c11.4-13.2,27.1-14.8,36.4-14c25.6,2.2,34.4,16.6,34.5,27.7c0.1,11.4-10.7,24.9-37,26.6c0,0-20.6,1.5-33.6-13.9
			c-0.4-1-1.9-2.2-4-1.2c-2.1,1-1.4,3.6-1.4,3.6s9.6,16.3,39.2,18.4c15.4,1.1,49.2-5.2,52-33.3C451.5,47,439.3,23.7,400.9,23.7z"/>
	</g>
	<g>
		<path class="st0" d="M397.1,8.7c43.8,0.1,60.1,26.4,60.1,26.4s1.3,4.1-2.1,5.4c-3.4,1.2-5-1-5.2-1.3c-16.5-18.9-39-21.2-52.5-20.1
			C360.7,22.3,348,43.1,347.9,59c-0.1,16.4,15.3,35.9,53.2,38.3c0,0,29.7,2.2,48.4-20c0.6-1.4,2.7-3.1,5.7-1.7c3,1.4,2,5.1,2,5.1
			s-13.9,23.4-56.4,26.5c-22.2,1.6-70.8-7.5-74.8-47.9C324.3,42.2,341.8,8.6,397.1,8.7z"/>
	</g>
	<g>
		<path class="st0" d="M413.7,57.7c0,8.1-6.6,14.6-14.6,14.6s-14.6-6.6-14.6-14.6c0-8.1,6.6-14.6,14.6-14.6S413.7,49.6,413.7,57.7z"
			/>
	</g>
	<g>
		<g>
			<path class="st0" d="M868.7,40.7c-1.3,1.3-2.8,1.9-4.6,1.9c-1.8,0-3.3-0.6-4.6-1.9c-1.3-1.3-1.9-2.8-1.9-4.6
				c0-1.8,0.6-3.3,1.9-4.6c1.3-1.3,2.8-1.9,4.6-1.9c1.8,0,3.3,0.6,4.6,1.9c1.3,1.3,1.9,2.8,1.9,4.6C870.6,37.9,870,39.4,868.7,40.7z
				 M860.2,32.1c-1.1,1.1-1.6,2.4-1.6,3.9c0,1.6,0.5,2.9,1.6,4c1.1,1.1,2.4,1.6,3.9,1.6c1.5,0,2.9-0.5,3.9-1.6
				c1.1-1.1,1.6-2.4,1.6-4c0-1.5-0.5-2.9-1.6-3.9c-1.1-1.1-2.4-1.6-3.9-1.6C862.6,30.5,861.3,31,860.2,32.1z M864,32.5
				c0.9,0,1.5,0.1,1.9,0.3c0.7,0.3,1.1,0.9,1.1,1.8c0,0.6-0.2,1.1-0.7,1.4c-0.2,0.2-0.6,0.3-1,0.3c0.6,0.1,1,0.3,1.2,0.7
				c0.3,0.4,0.4,0.7,0.4,1.1v0.5c0,0.2,0,0.3,0,0.5c0,0.2,0,0.3,0.1,0.4l0,0.1h-1.2c0,0,0,0,0-0.1c0,0,0,0,0-0.1l0-0.2v-0.6
				c0-0.8-0.2-1.4-0.7-1.6c-0.3-0.2-0.7-0.2-1.4-0.2h-1v2.8h-1.3v-7.1H864z M865.3,33.6c-0.3-0.2-0.8-0.3-1.5-0.3h-1.1v2.6h1.1
				c0.5,0,0.9-0.1,1.2-0.2c0.5-0.2,0.7-0.6,0.7-1.1C865.8,34.2,865.7,33.8,865.3,33.6z"/>
		</g>
		<g>
			<path class="st0" d="M509.1,36.4c16.1,0,24.1,8,22.8,12.5c-0.8,3-3.8,5.7-8,5.7c-8.1,0-4-8-16.9-8c-8.8,0-13.5,4.3-16.4,14.4
				c-0.8,4.6,0.1,14.8,12.2,14.8c11,0,12.4-8.6,19.2-8.6c5.3,0,7.9,2.8,7.1,5.4c-1.9,6.7-12.1,14.6-32.1,13.2
				c-20.1-1.4-27.3-14.3-22.3-28.4C478.4,44.5,489.3,36.4,509.1,36.4z"/>
		</g>
		<g>
			<path class="st0" d="M835.7,36.4c16.1,0,24.1,8,22.8,12.5c-0.8,3-3.8,5.7-8,5.7c-8.1,0-4-8-16.9-8c-8.8,0-13.5,4.3-16.4,14.4
				c-0.8,4.6,0.1,14.8,12.2,14.8c11,0,12.4-8.6,19.2-8.6c5.3,0,7.9,2.8,7.1,5.4c-1.9,6.7-12.1,14.6-32.1,13.2
				c-20.1-1.4-27.3-14.3-22.3-28.4C805,44.5,815.8,36.4,835.7,36.4z"/>
		</g>
		<g>
			<path class="st0" d="M567,36.5c21.2,0.3,30.9,12.7,26.5,28.9c-4.1,14.9-16.6,20.7-36,20.7c-20.4,0-29.3-13-25.9-27.2
				C534.1,47.8,544.4,36.1,567,36.5z M560.1,76.3c10.3-0.1,15.3-5,17-14.1c1.6-8.6-3-15.6-11.3-15.9c-10.6-0.4-16.8,6.5-17.7,14.8
				C547.3,68.5,550.2,76.3,560.1,76.3z"/>
		</g>
		<g>
			<path class="st0" d="M771,36.5c21.2,0.3,30.9,12.7,26.5,28.9c-4.1,14.9-16.6,20.7-36,20.7c-20.4,0-29.3-13-25.9-27.2
				C738.1,47.8,748.4,36.1,771,36.5z M764.1,76.3c10.3-0.1,15.3-5,17-14.1c1.6-8.6-3-15.6-11.3-15.9c-10.6-0.4-16.8,6.5-17.7,14.8
				C751.3,68.5,754.2,76.3,764.1,76.3z"/>
		</g>
		<g>
			<path class="st0" d="M629.5,82.5c-2.1,3.7-7.5,3.6-11.6,3.6c-4,0-9.3-0.7-9.9-4.5L595.8,46c-0.2-1.5-0.6-2.2-0.4-3.2
				c0.9-4.3,5.8-6.3,9-6.3c3.5,0,7.2,1.2,8,5.1l7.8,30.1l0.3-0.1L635.8,42c2.2-4.9,6.8-5.5,9.8-5.5c3.2,0,7.6,2.8,6.7,7.1
				c-0.2,1-0.7,2.3-1.6,3.8L629.5,82.5z"/>
		</g>
		<g>
			<path class="st0" d="M654.7,43c0.8-3.9,3.9-6.5,7.9-6.5c4,0,9.4-0.7,9.4,6.7l-4.7,36.6c-1.5,5.4-5.6,6.3-9.6,6.3
				c-4,0-8.4-2.1-7.6-6L654.7,43z"/>
		</g>
		<g>
			<g>
				<path class="st0" d="M676.5,42.7c0.9-4.4,4.6-6.2,9.2-6.2c4.6,0,6.7,2.7,6.3,6.5l-0.4,1.9l0.6,0c5.3-5.4,15.6-9.5,25.8-8.1
					c10.5,1.5,17.6,5.7,14.5,20.6L730,78.2c-1,6.7-4.8,7.9-10.6,7.9c-5.7,0-7.4-3.7-6.6-7.6l2.6-22.1c1.3-5.9-3-9-9.3-9
					c-5.1,0-12.8,2.2-14.4,9.5l-2.9,22.3c-0.8,5.1-4,6.9-9.8,6.9c-7,0-8-4.3-7.2-8.2L676.5,42.7z"/>
			</g>
		</g>
	</g>
</g>
<g>
	<path class="st0" d="M28.1,72.2c1.4,0,2.6-0.2,3.6-0.7c1.1-0.5,2-1.1,2.7-1.9c0.7-0.8,1.3-1.8,1.7-3c0.4-1.1,0.6-2.4,0.6-3.8v-20
		h4.4v20c0,1.9-0.3,3.7-0.9,5.3c-0.6,1.6-1.5,3-2.6,4.2c-1.1,1.2-2.5,2.1-4.1,2.8c-1.6,0.7-3.4,1-5.5,1s-3.8-0.3-5.5-1
		s-3-1.6-4.1-2.8c-1.1-1.2-2-2.6-2.6-4.2c-0.6-1.6-0.9-3.4-0.9-5.3v-20h4.4v19.9c0,1.4,0.2,2.6,0.6,3.8c0.4,1.1,1,2.1,1.7,3
		c0.7,0.8,1.7,1.5,2.7,1.9S26.8,72.2,28.1,72.2z"/>
	<path class="st0" d="M51.4,55.9c0.5-0.6,1-1.1,1.6-1.5c0.6-0.5,1.2-0.9,1.8-1.2c0.6-0.3,1.3-0.6,2-0.8s1.5-0.3,2.3-0.3
		c1.3,0,2.4,0.2,3.4,0.6s1.8,1,2.4,1.8c0.6,0.8,1.1,1.7,1.5,2.8c0.3,1.1,0.5,2.3,0.5,3.6v14.8h-4.1V61c0-1.8-0.4-3.1-1.2-4.1
		c-0.8-1-2-1.5-3.7-1.5c-1.2,0-2.3,0.3-3.4,0.9c-1,0.6-2,1.4-2.9,2.4v17.1h-4.1V52.5H50c0.6,0,0.9,0.3,1.1,0.8L51.4,55.9z"/>
	<path class="st0" d="M98.4,56.4c-0.2,0.3-0.5,0.5-0.8,0.5c-0.2,0-0.5-0.1-0.8-0.3c-0.3-0.2-0.6-0.4-1.1-0.6
		c-0.4-0.2-0.9-0.4-1.5-0.6c-0.6-0.2-1.3-0.3-2.1-0.3c-0.7,0-1.3,0.1-1.9,0.3c-0.6,0.2-1,0.4-1.4,0.7s-0.7,0.7-0.9,1.1
		c-0.2,0.4-0.3,0.8-0.3,1.3c0,0.6,0.2,1.1,0.5,1.5c0.3,0.4,0.8,0.7,1.4,1c0.6,0.3,1.2,0.5,1.9,0.8c0.7,0.2,1.5,0.5,2.2,0.7
		c0.8,0.3,1.5,0.5,2.2,0.8c0.7,0.3,1.4,0.7,1.9,1.1s1,1,1.4,1.7c0.3,0.7,0.5,1.5,0.5,2.4c0,1.1-0.2,2.1-0.6,3
		c-0.4,0.9-0.9,1.7-1.7,2.4c-0.7,0.7-1.7,1.2-2.8,1.6c-1.1,0.4-2.3,0.6-3.8,0.6c-1.6,0-3.1-0.3-4.4-0.8c-1.3-0.5-2.4-1.2-3.3-2
		l1-1.6c0.1-0.2,0.3-0.4,0.4-0.5c0.2-0.1,0.4-0.2,0.6-0.2c0.3,0,0.6,0.1,0.9,0.3c0.3,0.2,0.7,0.5,1.1,0.7c0.4,0.3,1,0.5,1.6,0.7
		c0.6,0.2,1.4,0.3,2.3,0.3c0.8,0,1.5-0.1,2.1-0.3c0.6-0.2,1.1-0.5,1.5-0.8c0.4-0.4,0.7-0.8,0.9-1.2c0.2-0.5,0.3-0.9,0.3-1.5
		c0-0.6-0.2-1.2-0.5-1.6C95,67.4,94.6,67,94,66.7c-0.6-0.3-1.2-0.6-1.9-0.8c-0.7-0.2-1.5-0.5-2.2-0.7c-0.8-0.2-1.5-0.5-2.2-0.8
		c-0.7-0.3-1.4-0.7-1.9-1.2c-0.6-0.5-1-1.1-1.4-1.8c-0.3-0.7-0.5-1.5-0.5-2.5c0-0.9,0.2-1.7,0.6-2.6c0.4-0.8,0.9-1.5,1.6-2.2
		c0.7-0.6,1.6-1.1,2.6-1.5c1-0.4,2.2-0.6,3.5-0.6c1.5,0,2.9,0.2,4.1,0.7c1.2,0.5,2.3,1.1,3.2,2L98.4,56.4z"/>
	<path class="st0" d="M123.6,72.5c-0.5,0.6-1.1,1.1-1.8,1.6c-0.7,0.5-1.5,0.8-2.3,1.1c-0.8,0.3-1.6,0.5-2.5,0.7s-1.7,0.2-2.5,0.2
		c-1.6,0-3.1-0.3-4.4-0.8c-1.4-0.5-2.5-1.3-3.5-2.4c-1-1-1.8-2.3-2.3-3.9s-0.8-3.3-0.8-5.3c0-1.6,0.2-3.1,0.7-4.5
		c0.5-1.4,1.2-2.6,2.1-3.7c0.9-1,2.1-1.8,3.4-2.4c1.3-0.6,2.9-0.9,4.5-0.9c1.4,0,2.7,0.2,3.9,0.7c1.2,0.5,2.2,1.1,3.1,2
		c0.9,0.9,1.5,2,2,3.3c0.5,1.3,0.7,2.8,0.7,4.4c0,0.6-0.1,1.1-0.2,1.3c-0.1,0.2-0.4,0.3-0.8,0.3h-15.5c0,1.5,0.2,2.7,0.6,3.8
		c0.4,1.1,0.9,2,1.5,2.7c0.6,0.7,1.4,1.3,2.3,1.6c0.9,0.4,1.9,0.5,3,0.5c1,0,1.9-0.1,2.6-0.4c0.7-0.2,1.4-0.5,1.9-0.8
		c0.5-0.3,1-0.5,1.3-0.8s0.7-0.4,0.9-0.4c0.3,0,0.6,0.1,0.8,0.4L123.6,72.5z M120.3,61.6c0-0.9-0.1-1.8-0.4-2.6
		c-0.3-0.8-0.7-1.5-1.2-2c-0.5-0.6-1.1-1-1.9-1.3c-0.7-0.3-1.6-0.5-2.5-0.5c-2,0-3.5,0.6-4.6,1.7c-1.1,1.1-1.8,2.7-2.1,4.7H120.3z"
		/>
	<path class="st0" d="M132.8,57.2c0.7-1.6,1.6-2.8,2.7-3.7c1.1-0.9,2.4-1.3,3.9-1.3c0.5,0,1,0.1,1.4,0.2c0.5,0.1,0.9,0.3,1.2,0.5
		l-0.3,3c-0.1,0.4-0.3,0.6-0.7,0.6c-0.2,0-0.5,0-0.9-0.1c-0.4-0.1-0.9-0.1-1.4-0.1c-0.7,0-1.4,0.1-2,0.3c-0.6,0.2-1.1,0.5-1.5,1
		c-0.5,0.4-0.9,0.9-1.2,1.6c-0.4,0.6-0.7,1.3-1,2.1v14.7h-4.1V52.5h2.3c0.4,0,0.7,0.1,0.9,0.3c0.2,0.2,0.3,0.5,0.3,0.9L132.8,57.2z"
		/>
	<path class="st0" d="M165.5,52.5l-9.5,23.2h-3.7l-9.5-23.2h3.3c0.3,0,0.6,0.1,0.8,0.3c0.2,0.2,0.4,0.4,0.4,0.6l5.9,15
		c0.2,0.6,0.3,1.1,0.5,1.7s0.3,1.1,0.4,1.6c0.1-0.5,0.3-1.1,0.4-1.6s0.3-1.1,0.5-1.7l6-15c0.1-0.2,0.2-0.4,0.5-0.6
		c0.2-0.2,0.5-0.2,0.8-0.2H165.5z"/>
	<path class="st0" d="M174.5,45.2c0,0.4-0.1,0.8-0.2,1.1c-0.2,0.3-0.4,0.6-0.6,0.9c-0.3,0.3-0.6,0.5-0.9,0.6
		c-0.4,0.2-0.7,0.2-1.1,0.2c-0.4,0-0.8-0.1-1.1-0.2s-0.6-0.4-0.9-0.6c-0.3-0.3-0.5-0.6-0.6-0.9s-0.2-0.7-0.2-1.1
		c0-0.4,0.1-0.8,0.2-1.1c0.2-0.4,0.4-0.7,0.6-0.9c0.3-0.3,0.6-0.5,0.9-0.6c0.3-0.2,0.7-0.2,1.1-0.2c0.4,0,0.8,0.1,1.1,0.2
		c0.4,0.2,0.7,0.4,0.9,0.6c0.3,0.3,0.5,0.6,0.6,0.9C174.4,44.5,174.5,44.9,174.5,45.2z M173.6,52.5v23.2h-4.1V52.5H173.6z"/>
	<path class="st0" d="M196.5,56.7c-0.1,0.2-0.2,0.3-0.4,0.4c-0.1,0.1-0.3,0.1-0.5,0.1c-0.2,0-0.5-0.1-0.8-0.3
		c-0.3-0.2-0.6-0.4-1-0.6c-0.4-0.2-0.9-0.4-1.5-0.6c-0.6-0.2-1.3-0.3-2.2-0.3c-1.1,0-2.2,0.2-3,0.6c-0.9,0.4-1.6,1-2.2,1.8
		c-0.6,0.8-1,1.7-1.3,2.8c-0.3,1.1-0.4,2.3-0.4,3.6c0,1.4,0.2,2.7,0.5,3.7c0.3,1.1,0.8,2,1.4,2.8c0.6,0.7,1.3,1.3,2.1,1.7
		c0.8,0.4,1.8,0.6,2.8,0.6c1,0,1.8-0.1,2.5-0.4c0.6-0.2,1.2-0.5,1.6-0.8c0.4-0.3,0.8-0.6,1.1-0.8c0.3-0.2,0.6-0.4,0.8-0.4
		c0.3,0,0.6,0.1,0.8,0.4l1.1,1.5c-0.5,0.6-1.1,1.2-1.7,1.6s-1.3,0.8-2.1,1.1c-0.7,0.3-1.5,0.5-2.3,0.7c-0.8,0.1-1.6,0.2-2.5,0.2
		c-1.5,0-2.8-0.3-4-0.8c-1.2-0.5-2.3-1.3-3.2-2.3c-0.9-1-1.6-2.3-2.2-3.7c-0.5-1.5-0.8-3.2-0.8-5.1c0-1.7,0.2-3.3,0.7-4.8
		c0.5-1.5,1.2-2.7,2.1-3.8c0.9-1.1,2.1-1.9,3.4-2.5c1.4-0.6,2.9-0.9,4.7-0.9c1.6,0,3.1,0.3,4.3,0.8c1.2,0.5,2.4,1.3,3.3,2.2
		L196.5,56.7z"/>
	<path class="st0" d="M207.4,45.2c0,0.4-0.1,0.8-0.2,1.1c-0.2,0.3-0.4,0.6-0.6,0.9c-0.3,0.3-0.6,0.5-0.9,0.6
		c-0.4,0.2-0.7,0.2-1.1,0.2c-0.4,0-0.8-0.1-1.1-0.2s-0.6-0.4-0.9-0.6c-0.3-0.3-0.5-0.6-0.6-0.9s-0.2-0.7-0.2-1.1
		c0-0.4,0.1-0.8,0.2-1.1c0.2-0.4,0.4-0.7,0.6-0.9c0.3-0.3,0.6-0.5,0.9-0.6c0.3-0.2,0.7-0.2,1.1-0.2c0.4,0,0.8,0.1,1.1,0.2
		c0.4,0.2,0.7,0.4,0.9,0.6c0.3,0.3,0.5,0.6,0.6,0.9C207.3,44.5,207.4,44.9,207.4,45.2z M206.5,52.5v23.2h-4.1V52.5H206.5z"/>
	<path class="st0" d="M223,52.2c1.7,0,3.2,0.3,4.6,0.8c1.4,0.6,2.5,1.4,3.5,2.4c1,1,1.7,2.3,2.2,3.8c0.5,1.5,0.8,3.1,0.8,4.9
		c0,1.8-0.3,3.5-0.8,5c-0.5,1.5-1.2,2.7-2.2,3.8c-1,1-2.1,1.8-3.5,2.4c-1.4,0.6-2.9,0.8-4.6,0.8c-1.7,0-3.3-0.3-4.6-0.8
		c-1.4-0.6-2.5-1.4-3.5-2.4c-1-1-1.7-2.3-2.2-3.8c-0.5-1.5-0.8-3.1-0.8-5c0-1.8,0.3-3.5,0.8-4.9c0.5-1.5,1.2-2.7,2.2-3.8
		c1-1,2.1-1.8,3.5-2.4C219.7,52.5,221.3,52.2,223,52.2z M223,72.9c2.3,0,4-0.8,5.1-2.3c1.1-1.5,1.7-3.7,1.7-6.4
		c0-2.8-0.6-4.9-1.7-6.5c-1.1-1.5-2.8-2.3-5.1-2.3c-1.2,0-2.2,0.2-3,0.6c-0.9,0.4-1.6,1-2.2,1.7c-0.6,0.7-1,1.7-1.3,2.8
		c-0.3,1.1-0.4,2.3-0.4,3.7c0,2.8,0.6,4.9,1.7,6.4C218.9,72.1,220.7,72.9,223,72.9z"/>
	<path class="st0" d="M270.2,42v33.8h-2.4c-0.6,0-0.9-0.3-1.1-0.8l-0.4-2.8c-1,1.2-2.1,2.2-3.4,2.9c-1.3,0.7-2.7,1.1-4.4,1.1
		c-1.3,0-2.5-0.3-3.6-0.8c-1.1-0.5-2-1.3-2.8-2.3c-0.8-1-1.4-2.2-1.8-3.7c-0.4-1.5-0.6-3.2-0.6-5.1c0-1.7,0.2-3.3,0.7-4.8
		c0.5-1.5,1.1-2.8,2-3.8c0.9-1.1,1.9-1.9,3.2-2.6c1.2-0.6,2.6-0.9,4.2-0.9c1.4,0,2.6,0.2,3.7,0.7c1,0.5,1.9,1.2,2.7,2V42H270.2z
		 M266.1,58.1c-0.8-1-1.6-1.7-2.5-2.1c-0.9-0.4-1.9-0.6-3-0.6c-2.2,0-3.8,0.8-5,2.3c-1.2,1.5-1.7,3.7-1.7,6.6c0,1.5,0.1,2.8,0.4,3.9
		c0.3,1.1,0.6,2,1.1,2.7c0.5,0.7,1.1,1.2,1.9,1.5c0.7,0.3,1.6,0.5,2.5,0.5c1.3,0,2.5-0.3,3.5-0.9c1-0.6,1.9-1.5,2.8-2.6V58.1z"/>
	<path class="st0" d="M295.5,72.5c-0.5,0.6-1.1,1.1-1.8,1.6c-0.7,0.5-1.5,0.8-2.3,1.1c-0.8,0.3-1.6,0.5-2.5,0.7s-1.7,0.2-2.5,0.2
		c-1.6,0-3.1-0.3-4.4-0.8c-1.4-0.5-2.5-1.3-3.5-2.4c-1-1-1.8-2.3-2.3-3.9s-0.8-3.3-0.8-5.3c0-1.6,0.2-3.1,0.7-4.5
		c0.5-1.4,1.2-2.6,2.1-3.7c0.9-1,2.1-1.8,3.4-2.4c1.3-0.6,2.9-0.9,4.5-0.9c1.4,0,2.7,0.2,3.9,0.7c1.2,0.5,2.2,1.1,3.1,2
		c0.9,0.9,1.5,2,2,3.3c0.5,1.3,0.7,2.8,0.7,4.4c0,0.6-0.1,1.1-0.2,1.3c-0.1,0.2-0.4,0.3-0.8,0.3h-15.5c0,1.5,0.2,2.7,0.6,3.8
		c0.4,1.1,0.9,2,1.5,2.7c0.6,0.7,1.4,1.3,2.3,1.6c0.9,0.4,1.9,0.5,3,0.5c1,0,1.9-0.1,2.6-0.4c0.7-0.2,1.4-0.5,1.9-0.8
		c0.5-0.3,1-0.5,1.3-0.8s0.7-0.4,0.9-0.4c0.3,0,0.6,0.1,0.8,0.4L295.5,72.5z M292.2,61.6c0-0.9-0.1-1.8-0.4-2.6
		c-0.3-0.8-0.7-1.5-1.2-2c-0.5-0.6-1.1-1-1.9-1.3c-0.7-0.3-1.6-0.5-2.5-0.5c-2,0-3.5,0.6-4.6,1.7c-1.1,1.1-1.8,2.7-2.1,4.7H292.2z"
		/>
</g>
</svg>
