<?xml version="1.0" encoding="utf-8"?>
<!-- Generator: Adobe Illustrator 24.0.3, SVG Export Plug-In . SVG Version: 6.00 Build 0)  -->
<svg version="1.1" id="Capa_1" xmlns="http://www.w3.org/2000/svg" xmlns:xlink="http://www.w3.org/1999/xlink" x="0px" y="0px"
	 viewBox="0 0 152 123" style="enable-background:new 0 0 152 123;" xml:space="preserve">
<style type="text/css">
	.st0{fill:#0CA98E;}
</style>
<path class="st0" d="M99.1,56.3l-37.8-22c-3.4-1.8-7.7,0.5-7.7,4.3v42.8c0,3.8,4.3,6.1,7.7,4.3l37.8-20.8
	C102.6,63.1,102.6,58.2,99.1,56.3z M127.5,63.5C127.5,35.3,103.7,9,74.2,9S20.9,31.8,20.9,60s23.9,51,53.3,51S127.5,91.7,127.5,63.5
	z M31.2,60c0-22.7,19.2-41.1,43-41.1s43,21.9,43,44.6s-19.2,37.6-43,37.6S31.2,82.7,31.2,60z"/>
</svg>
