<?xml version="1.0" encoding="utf-8"?>
<!-- Generator: Adobe Illustrator 24.0.3, SVG Export Plug-In . SVG Version: 6.00 Build 0)  -->
<svg version="1.1" id="Capa_1" xmlns="http://www.w3.org/2000/svg" xmlns:xlink="http://www.w3.org/1999/xlink" x="0px" y="0px"
	 viewBox="0 0 152 123" style="enable-background:new 0 0 152 123;" xml:space="preserve">
<style type="text/css">
	.st0{fill:#0CA98E;}
</style>
<path class="st0" d="M114.2,24C104.1,14.3,90.6,9,76.3,9C46.7,9,22.6,32,22.6,60.3c0,9,2.5,17.9,7.2,25.7l-7.6,26.6l28.4-7.1
	c7.8,4.1,16.6,6.2,25.6,6.2h0c29.5,0,54.1-23,54.1-51.3C130.4,46.6,124.3,33.8,114.2,24z M76.3,103c-8,0-15.9-2.1-22.7-5.9l-1.6-0.9
	l-16.9,4.2l4.5-15.7L38.5,83c-4.5-6.8-6.8-14.6-6.8-22.7c0-23.5,20-42.6,44.6-42.6c11.9,0,23.1,4.4,31.5,12.5s13.6,18.8,13.6,30.2
	C121.3,83.9,100.8,103,76.3,103z M100.7,71.1c-1.3-0.6-7.9-3.7-9.2-4.2c-1.2-0.4-2.1-0.6-3,0.6c-0.9,1.3-3.5,4.2-4.3,5
	c-0.8,0.9-1.6,1-2.9,0.3c-7.9-3.8-13-6.7-18.2-15.3c-1.4-2.3,1.4-2.1,3.9-7c0.4-0.9,0.2-1.6-0.1-2.2s-3-7-4.1-9.5
	c-1.1-2.5-2.2-2.1-3-2.2c-0.8,0-1.7,0-2.6,0c-0.9,0-2.3,0.3-3.6,1.6c-1.2,1.3-4.7,4.4-4.7,10.7s4.8,12.4,5.5,13.3
	c0.7,0.9,9.4,13.8,22.9,19.4c8.5,3.5,11.8,3.8,16.1,3.2c2.6-0.4,7.9-3.1,9-6.1c1.1-3,1.1-5.6,0.8-6.1C102.9,72,102,71.7,100.7,71.1z
	"/>
</svg>
